<svg xmlns="http://www.w3.org/2000/svg" viewBox="291.09 16.75 1440.9 175.79" role="img" aria-label="Alltomatiza"><g fill="#1D1D1F">
    <path d="M297.09,183.39l42.75-157.5h46.53l42.75,157.5h-27.61l-9.35-36h-58.11l-9.35,36h-27.61ZM340.28,122.64h45.64l-20.93-79.88h-3.78l-20.93,79.88Z"></path>
    <path d="M451.15,183.39V25.89h26.94v132.97h73.03v24.53h-99.96Z"></path>
    <path d="M574.27,183.39V25.89h26.94v132.97h73.03v24.53h-99.96Z"></path>
    <path d="M713.2,183.39V50.42h-46.53v-24.52h119.78v24.52h-46.53v132.98h-26.72Z"></path>
    <path d="M862.82,186.54c-19.3,0-34.7-5.44-46.2-16.31-11.5-10.87-17.25-26.51-17.25-46.91v-37.35c0-20.4,5.75-36.04,17.25-46.91,11.5-10.87,26.9-16.31,46.2-16.31s34.88,5.44,46.31,16.31c11.43,10.88,17.14,26.51,17.14,46.91v37.35c0,20.4-5.72,36.04-17.14,46.91-11.43,10.88-26.87,16.31-46.31,16.31ZM862.82,162.24c11.58,0,20.59-3.41,27.05-10.24,6.46-6.82,9.69-16.09,9.69-27.79v-39.15c0-11.7-3.23-20.96-9.69-27.79-6.46-6.82-15.47-10.24-27.05-10.24s-20.37,3.41-26.83,10.24c-6.46,6.83-9.69,16.09-9.69,27.79v39.15c0,11.7,3.23,20.96,9.69,27.79,6.46,6.83,15.4,10.24,26.83,10.24Z"></path>
    <path d="M955.44,183.39V25.89h50.09l30.28,139.28h3.78l30.5-139.28h49.87v157.5h-25.83V45.47h-3.78l-30.28,137.92h-44.53l-30.28-137.92h-3.78v137.92h-26.05Z"></path>
    <path d="M1142.23,183.39l42.75-157.5h46.53l42.75,157.5h-27.61l-9.35-36h-58.11l-9.35,36h-27.61ZM1185.42,122.64h45.64l-20.93-79.88h-3.78l-20.93,79.88Z"></path>
    <path d="M1318.12,183.39V50.42h-46.53v-24.52h119.78v24.52h-46.53v132.98h-26.72Z"></path>
    <path d="M1414.52,183.39V25.89h26.94v157.5h-26.94Z"></path>
    <path d="M1469.51,183.39v-34.65l79.48-95.4v-3.15h-77.26v-24.3h104.86v34.65l-79.48,95.4v3.15h80.37v24.3h-107.98Z"></path>
    <path d="M1593.96,183.39l42.75-157.5h46.53l42.75,157.5h-27.61l-9.35-36h-58.11l-9.35,36h-27.61ZM1637.15,122.64h45.64l-20.93-79.88h-3.78l-20.93,79.88Z"></path>
  </g></svg>