<svg xmlns="http://www.w3.org/2000/svg" viewBox="24 -2 274 216">
  <g fill="#1D1D1F">
    <path d="M152.98,145.78l-16.54-26.38c9.51-16.78,3.98-39.76-15.46-45.81-21.83-6.8-41.45,9.79-39.29,32.38.51,5.3,3.43,8.73,3.95,13.76l-16.01,26.05c-22.86-1.76-40.49,18.18-32.86,40.67,10.62,31.3,62.24,22.93,57.64-15.17-.57-4.73-4.58-9.87-3.64-13.68,1.48-5.93,12.7-17.73,15.11-24.45,1.98-1.64,8.87-1.64,10.85,0l15.86,25.58c-15.02,25.88,8.34,55.7,36.78,44.81,32.26-12.35,18.21-62.49-16.38-57.77Z"></path>
    <path d="M164.36,64.3l13.94,21.19c-.68,4.19-3.14,7.26-3.67,11.72-4.16,34.4,40.54,47.81,55.71,19.17,12.05-22.75-6.57-47.13-31.44-44.65-1.26-.38-14.6-19.71-15.1-21.52-.57-2.07,3.05-8.31,3.47-11.46,3.42-25.65-22.92-44.73-45.49-30.68-19.73,12.28-18.03,42.81,3.11,52.49,7.08,3.24,12.67,1.51,19.47,3.75Z"></path>
    <path d="M249.36,205.97c42.43,1.33,39.82-64.51-2.14-59.87-36.47,4.03-33.83,58.74,2.14,59.87Z"></path>
  </g>
</svg>