<?xml version="1.0"?>
<svg id="Camada_1" xmlns="http://www.w3.org/2000/svg" version="1.1" viewBox="0 0 1080 209.29">
  
  <defs>
    
  </defs>
  <g class="st0">
    <polygon class="st0" points="252.29 0 252.29 51.93 357.72 1.57 357.72 139.26 217.67 209.29 217.67 158.93 112.24 209.29 112.24 157.36 9.16 209.25 7.11 71.9 146.86 0 146.86 49.57 150.06 51.25 252.29 0"></polygon>
    <path d="M450.56,36.19l19.67,69.21,19.49-65.15,21.45.64,20.42,64.55,19.69-69.25h25.18l-32.21,102.33c-2.37,2.41-21.54,2.55-23.68-.03l-21.2-66.11-19.12,67.44-2.08.33c-5.87-1.18-17.55,2.39-21.17-2.61l-33.18-101.36h26.75Z"></path>
    <path d="M900.61,0v45.63l12.52-8.73c14.75-7.26,39.41-4.93,49.54,8.83,2.83,3.85,8.76,18.43,8.76,22.71v71.6h-22.82c-2.25-1.38-2.17-3.14-2.44-5.43-2.03-17.3,4.66-57.15-3.94-70.02-7.32-10.95-28.3-10.95-36.4-1.17-.88,1.06-5.22,10.69-5.22,11.31v65.3h-22.82c-2.25-1.38-2.17-3.14-2.44-5.43-4.66-39.74,3.71-88.48,0-129.2l2.44-5.43h22.82Z"></path>
    <path d="M626.46,33.48c78.86-9.15,83.99,105.21,12.12,109.69-73.3,4.57-80.64-101.74-12.12-109.69ZM626.38,57.01c-35.02,6.45-28.86,69.3,13.43,62.2,37.54-6.31,32.32-70.62-13.43-62.2Z"></path>
    <path d="M796.75,0v73.95c2.94.5,4.55-2.05,6.33-3.88,4.19-4.32,28.36-33.87,30.65-33.87h27.54l-40.75,45.07,40.75,58.79h-25.96l-35.44-50.34c-1.68-1.44-2.97-1.01-2.8,1.95.19,3.44-.32,5.58-.32,8.27v40.13h-23.6V0h23.6Z"></path>
    <polygon points="1004.47 36.19 1028.09 103.85 1053.25 36.19 1080 36.19 1026.5 176.24 999.75 176.24 1015.44 134.73 977.72 36.19 1004.47 36.19"></polygon>
    <path d="M758.99,33.05v22.82l-2.65,2.07c-9.9.18-19.27,3.35-22.9,13.29-.54,1.46-2.77,10.58-2.77,11.39v57.44h-23.6V36.19l22.13.69,2.25,10.32c5.81-9.77,16.16-14.47,27.55-14.16Z"></path>
  </g>
  <g id="A" class="st0">
    <path d="M177.94,145.78l-16.54-26.38c9.51-16.78,3.98-39.76-15.46-45.81-21.83-6.8-41.45,9.79-39.29,32.38.51,5.3,3.43,8.73,3.95,13.76l-16.01,26.05c-22.86-1.76-40.49,18.18-32.86,40.67,10.62,31.3,62.24,22.93,57.64-15.17-.57-4.73-4.58-9.87-3.64-13.68,1.48-5.93,12.7-17.73,15.11-24.45,1.98-1.64,8.87-1.64,10.85,0l15.86,25.58c-15.02,25.88,8.34,55.7,36.78,44.81,32.26-12.35,18.21-62.49-16.38-57.77Z"></path>
    <path d="M189.32,64.3l13.94,21.19c-.68,4.19-3.14,7.26-3.67,11.72-4.16,34.4,40.54,47.81,55.71,19.17,12.05-22.75-6.57-47.13-31.44-44.65-1.26-.38-14.6-19.71-15.1-21.52-.57-2.07,3.05-8.31,3.47-11.46,3.42-25.65-22.92-44.73-45.49-30.68-19.73,12.28-18.03,42.81,3.11,52.49,7.08,3.24,12.67,1.51,19.47,3.75Z"></path>
    <path d="M274.31,205.97c42.43,1.33,39.82-64.51-2.14-59.87-36.47,4.03-33.83,58.74,2.14,59.87Z"></path>
  </g>
  <g id="ALPIZE" class="st0">
    <path d="M349.42,182.27l40.81-155.25h51.01l40.81,155.25h-30.16l-8.43-34.15h-55.45l-8.43,34.15h-30.16ZM394.89,121.06h41.7l-18.85-75.63h-3.99l-18.85,75.63Z"></path>
    <path d="M506.23,182.27V27.02h29.28v128.64h70.97v26.61h-100.25Z"></path>
    <path d="M631.98,182.27V27.02h63.88c9.76,0,18.37,1.96,25.84,5.88,7.46,3.92,13.31,9.43,17.52,16.52,4.21,7.1,6.32,15.52,6.32,25.28v3.11c0,9.61-2.18,18-6.54,25.17-4.36,7.17-10.28,12.72-17.74,16.63-7.47,3.92-15.93,5.88-25.39,5.88h-34.6v56.78h-29.28ZM661.25,98.88h31.72c6.95,0,12.57-1.92,16.86-5.77,4.29-3.84,6.43-9.09,6.43-15.75v-2.22c0-6.65-2.15-11.9-6.43-15.75-4.29-3.84-9.91-5.77-16.86-5.77h-31.72v45.24Z"></path>
    <path d="M771.48,182.27V27.02h29.28v155.25h-29.28Z"></path>
    <path d="M831.14,182.27v-37.26l76.74-88.27v-3.55h-74.52v-26.17h105.13v37.26l-76.74,88.27v3.55h77.18v26.17h-107.79Z"></path>
    <path d="M968.87,182.27V27.02h99.8v26.61h-70.53v37.04h64.32v26.61h-64.32v38.37h71.86v26.61h-101.13Z"></path>
  </g>
  <g>
    <g id="A1" data-name="A">
      <path d="M152.98,145.78l-16.54-26.38c9.51-16.78,3.98-39.76-15.46-45.81-21.83-6.8-41.45,9.79-39.29,32.38.51,5.3,3.43,8.73,3.95,13.76l-16.01,26.05c-22.86-1.76-40.49,18.18-32.86,40.67,10.62,31.3,62.24,22.93,57.64-15.17-.57-4.73-4.58-9.87-3.64-13.68,1.48-5.93,12.7-17.73,15.11-24.45,1.98-1.64,8.87-1.64,10.85,0l15.86,25.58c-15.02,25.88,8.34,55.7,36.78,44.81,32.26-12.35,18.21-62.49-16.38-57.77Z"></path>
      <path d="M164.36,64.3l13.94,21.19c-.68,4.19-3.14,7.26-3.67,11.72-4.16,34.4,40.54,47.81,55.71,19.17,12.05-22.75-6.57-47.13-31.44-44.65-1.26-.38-14.6-19.71-15.1-21.52-.57-2.07,3.05-8.31,3.47-11.46,3.42-25.65-22.92-44.73-45.49-30.68-19.73,12.28-18.03,42.81,3.11,52.49,7.08,3.24,12.67,1.51,19.47,3.75Z"></path>
      <path d="M249.36,205.97c42.43,1.33,39.82-64.51-2.14-59.87-36.47,4.03-33.83,58.74,2.14,59.87Z"></path>
    </g>
    <g id="ALPIZE1" data-name="ALPIZE">
      <path d="M324.47,182.27l40.81-155.25h51.01l40.81,155.25h-30.16l-8.43-34.15h-55.45l-8.43,34.15h-30.16ZM369.93,121.06h41.7l-18.85-75.63h-3.99l-18.85,75.63Z"></path>
      <path d="M481.27,182.27V27.02h29.28v128.64h70.97v26.61h-100.25Z"></path>
      <path d="M607.02,182.27V27.02h63.88c9.76,0,18.37,1.96,25.84,5.88,7.46,3.92,13.31,9.43,17.52,16.52,4.21,7.1,6.32,15.52,6.32,25.28v3.11c0,9.61-2.18,18-6.54,25.17-4.36,7.17-10.28,12.72-17.74,16.63-7.47,3.92-15.93,5.88-25.39,5.88h-34.6v56.78h-29.28ZM636.3,98.88h31.72c6.95,0,12.57-1.92,16.86-5.77,4.29-3.84,6.43-9.09,6.43-15.75v-2.22c0-6.65-2.15-11.9-6.43-15.75-4.29-3.84-9.91-5.77-16.86-5.77h-31.72v45.24Z"></path>
      <path d="M746.52,182.27V27.02h29.28v155.25h-29.28Z"></path>
      <path d="M806.18,182.27v-37.26l76.74-88.27v-3.55h-74.52v-26.17h105.13v37.26l-76.74,88.27v3.55h77.18v26.17h-107.79Z"></path>
      <path d="M943.91,182.27V27.02h99.8v26.61h-70.53v37.04h64.32v26.61h-64.32v38.37h71.86v26.61h-101.13Z"></path>
    </g>
  </g>
</svg>